# xmcd
#
# Track frame offsets:
#	150
#	13182
#	25425
#	38072
#	51555
#	64516
#	75464
#	88320
#	100180
#	112333
#	124953
#
# Disc length: 1800 seconds
#
# Revision: 1
# Processed by: cddbd v1.5.2PL0 Copyright (c) Steve Scherf et al.
# Submitted via: audiograbber 1.82.01
#
DISCID=9807060b
DTITLE=Nat King Cole - Espanhol
DYEAR=1900
DGENRE=
TTITLE0=Cachito
TTITLE1=Maria Elena
TTITLE2=Quizas, Quizas, Quizas
TTITLE3=Las Mananitas
TTITLE4=Acercate Más
TTITLE5=El Bodeguero
TTITLE6=Arrivederci Roma
TTITLE7=Noche de Ronda
TTITLE8=Tu Mi Delirio
TTITLE9=Te Quiero Dijiste
TTITLE10=Adelita
EXTD=
EXTT0=
EXTT1=
EXTT2=
EXTT3=
EXTT4=
EXTT5=
EXTT6=
EXTT7=
EXTT8=
EXTT9=
EXTT10=
PLAYORDER=
